<?xml version="1.0" standalone="no"?>
<!DOCTYPE svg PUBLIC "-//W3C//DTD SVG 20010904//EN"
 "http://www.w3.org/TR/2001/REC-SVG-20010904/DTD/svg10.dtd">
<svg version="1.0" xmlns="http://www.w3.org/2000/svg"
 width="384.000000pt" height="384.000000pt" viewBox="0 0 384.000000 384.000000"
 preserveAspectRatio="xMidYMid meet">
<metadata>
Created by potrace 1.14, written by Peter Selinger 2001-2017
</metadata>
<g transform="translate(0.000000,384.000000) scale(0.100000,-0.100000)"
fill="#000000" stroke="none">
<path d="M1727 3584 c-1 -1 -29 -5 -62 -9 -57 -6 -144 -22 -265 -50 -30 -7
-85 -24 -122 -38 -38 -14 -68 -24 -68 -22 0 2 -42 -17 -92 -42 -163 -79 -318
-191 -427 -306 -92 -98 -115 -126 -169 -207 -219 -330 -306 -700 -269 -1140
13 -155 24 -210 80 -405 38 -131 152 -353 237 -459 123 -153 273 -288 420
-375 145 -86 383 -176 520 -197 25 -3 54 -8 65 -10 103 -20 416 -26 520 -11
28 3 70 9 95 13 244 32 539 156 745 313 94 72 226 207 304 313 39 53 71 99 71
102 0 3 14 29 31 58 17 29 35 63 40 75 l9 23 -434 0 -433 0 -24 -23 c-66 -63
-219 -139 -354 -174 -82 -22 -123 -27 -230 -27 -71 -1 -150 2 -175 6 -279 42
-512 203 -639 439 -49 92 -79 168 -92 233 -6 28 -12 60 -14 71 -34 171 -23
371 30 545 19 64 73 180 101 217 13 17 24 35 24 40 0 9 142 158 176 184 81 62
244 136 365 165 45 11 324 13 384 3 108 -18 276 -84 355 -139 23 -16 61 -18
463 -17 241 0 440 3 442 7 4 6 -84 151 -109 179 -9 10 -16 23 -16 29 0 6 -6
15 -12 19 -7 4 -29 29 -50 54 -87 109 -266 261 -393 334 -94 55 -246 123 -335
150 -50 16 -237 57 -300 66 -61 9 -385 20 -393 13z"/>
<path d="M1677 2611 c-2 -3 -3 -292 -3 -641 l1 -635 133 -3 132 -3 1 73 c0 40
0 118 -1 173 l-1 100 70 0 c59 0 73 -3 85 -20 16 -23 152 -256 173 -297 l14
-28 270 0 269 0 -1 63 c-1 34 -1 112 0 173 l1 111 68 -2 c37 -1 70 -3 73 -4 4
0 14 -16 23 -33 9 -18 22 -42 29 -53 6 -11 28 -47 47 -80 19 -34 41 -70 47
-80 7 -11 22 -37 33 -57 l20 -38 150 0 c83 0 150 3 150 7 0 8 -73 133 -101
175 -11 15 -19 32 -19 37 0 5 -6 16 -13 23 -7 7 -26 36 -42 63 -16 28 -35 59
-42 70 -37 60 -37 62 -9 88 14 13 26 27 26 31 0 3 11 24 25 46 13 21 38 76 54
122 16 46 35 97 41 113 7 17 15 39 17 49 2 11 10 33 18 50 9 17 11 32 6 35
-10 6 -270 6 -275 0 -2 -2 -18 -49 -36 -104 -61 -187 -86 -213 -215 -221 l-75
-4 0 62 c-1 35 -2 194 -3 353 l-2 290 -132 1 -133 2 0 -188 0 -187 -135 0
c-75 0 -140 -4 -145 -9 -5 -5 -25 -60 -45 -122 -38 -117 -69 -166 -114 -184
-14 -5 -59 -12 -99 -15 l-72 -5 0 224 c1 122 1 282 0 354 l0 131 -130 0 c-72
0 -132 -2 -133 -6z m871 -998 l-3 -208 -35 63 c-19 34 -38 62 -42 62 -5 0 -8
6 -9 13 0 6 -29 59 -64 117 l-63 104 32 41 c50 62 61 84 96 180 17 50 44 124
58 165 l27 75 3 -202 c1 -111 1 -295 0 -410z"/>
</g>
</svg>
