<?xml version="1.0" standalone="no"?>
<!DOCTYPE svg PUBLIC "-//W3C//DTD SVG 20010904//EN"
 "http://www.w3.org/TR/2001/REC-SVG-20010904/DTD/svg10.dtd">
<svg version="1.0" xmlns="http://www.w3.org/2000/svg"
 width="3500.000000pt" height="3500.000000pt" viewBox="0 0 3500.000000 3500.000000"
 preserveAspectRatio="xMidYMid meet">
<metadata>
Created by potrace 1.14, written by Peter Selinger 2001-2017
</metadata>
<g transform="translate(0.000000,3500.000000) scale(0.100000,-0.100000)"
fill="#000000" stroke="none">
<path d="M3759 34996 c-2 -2 -47 -7 -99 -10 -52 -4 -104 -9 -115 -11 -11 -3
-47 -7 -79 -10 -32 -3 -62 -7 -65 -10 -4 -2 -30 -6 -58 -9 -63 -8 -298 -59
-395 -86 -40 -12 -80 -23 -88 -25 -26 -6 -222 -72 -290 -98 -319 -122 -721
-343 -955 -526 -22 -17 -53 -41 -70 -54 -138 -103 -422 -370 -555 -522 -398
-451 -705 -1030 -860 -1620 -24 -92 -65 -286 -76 -360 -5 -27 -9 -52 -9 -55
-1 -3 -5 -32 -9 -65 -4 -33 -10 -71 -12 -85 -2 -14 -7 -68 -12 -120 -10 -127
-9 -27540 1 -27655 12 -144 35 -311 56 -415 25 -126 43 -208 52 -236 5 -17 12
-42 14 -55 7 -35 54 -196 75 -254 232 -641 518 -1097 969 -1545 185 -184 241
-233 415 -363 72 -54 136 -101 141 -106 6 -4 53 -35 105 -68 372 -236 756
-403 1170 -509 103 -26 192 -45 270 -59 52 -9 106 -18 120 -20 14 -3 52 -8 85
-11 33 -4 63 -8 66 -10 29 -16 1915 -19 13954 -19 12094 0 13886 3 13955 20 8
2 38 6 65 10 176 21 450 79 595 125 19 6 42 13 50 15 62 14 273 91 410 150 91
38 369 177 410 204 38 25 62 39 95 57 111 62 364 246 521 379 78 66 367 355
430 429 211 251 360 472 519 771 31 59 146 305 149 320 2 6 10 27 19 49 9 21
17 42 17 47 0 5 4 17 10 27 29 52 155 490 174 607 2 17 9 55 15 85 11 59 16
95 26 175 4 28 8 61 11 75 2 14 7 66 11 115 10 114 10 27539 1 27660 -4 50
-12 124 -17 165 -6 41 -13 93 -16 115 -20 151 -111 532 -155 650 -4 11 -27 72
-50 135 -70 191 -168 403 -259 563 -11 20 -29 52 -39 70 -86 149 -261 400
-368 524 -11 11 -35 41 -54 65 -45 57 -350 362 -419 418 -29 25 -59 50 -65 55
-32 30 -232 179 -306 228 -47 31 -90 61 -97 67 -7 5 -15 10 -19 10 -3 0 -19 9
-34 20 -47 33 -238 138 -360 197 -143 69 -328 143 -485 195 -118 39 -441 121
-520 132 -22 4 -62 10 -90 16 -49 9 -69 11 -185 25 -30 3 -71 9 -90 12 -36 7
-27593 16 -27601 9z"/>
</g>
</svg>
